# xmcd
#
# Track frame offsets:
#	150
#	15067
#	29815
#	41842
#	55845
#	68962
#	83760
#	97797
#	113990
#	127932
#	140405
#	154270
#	168660
#	186027
#	201015
#	214225
#	229272
#	248007
#	263300
#	275840
#
# Disc length: 3811 seconds
#
# Revision: 1
# Processed by: cddbd v1.4PL0 Copyright (c) Steve Scherf et al.
# Submitted via: audiograbber 1.81.00
#
DISCID=140ee114
DTITLE=Ray Price - The Heart Of Country Music
DYEAR=1900
DGENRE=Country
TTITLE0=Have I Told You Lately That I Love You
TTITLE1=Walking The Floor Over You
TTITLE2=Please Don't Leave Me
TTITLE3=I Can't Help It
TTITLE4=He'll Have To Go
TTITLE5=Take Me As I Am
TTITLE6=Blue Eyes Crying In The Rain
TTITLE7=Blues Stay Away From Me
TTITLE8=Slipping Around
TTITLE9=Satisfied Mind
TTITLE10=Walking On New Grass
TTITLE11=Just Someone I Used To Know
TTITLE12=Today I Started Loving You Again
TTITLE13=She Thinks I Still Care
TTITLE14=Is Anybody Going To San Antone
TTITLE15=No One Will Ever Know
TTITLE16=The Last Letter
TTITLE17=Jealous Heart
TTITLE18=There Goes My Everything
TTITLE19=Waiting For A Train
EXTD=
EXTT0=
EXTT1=
EXTT2=
EXTT3=
EXTT4=
EXTT5=
EXTT6=
EXTT7=
EXTT8=
EXTT9=
EXTT10=
EXTT11=
EXTT12=
EXTT13=
EXTT14=
EXTT15=
EXTT16=
EXTT17=
EXTT18=
EXTT19=
PLAYORDER=
